<?xml version="1.0" encoding="utf-8"?>
<!-- Generator: Adobe Illustrator 17.0.0, SVG Export Plug-In . SVG Version: 6.00 Build 0)  -->
<!DOCTYPE svg PUBLIC "-//W3C//DTD SVG 1.1//EN" "http://www.w3.org/Graphics/SVG/1.1/DTD/svg11.dtd">
<svg version="1.1" id="Layer_1" xmlns="http://www.w3.org/2000/svg" xmlns:xlink="http://www.w3.org/1999/xlink" x="0px" y="0px"
	 width="595.28px" height="841.89px" viewBox="0 0 595.28 841.89" enable-background="new 0 0 595.28 841.89" xml:space="preserve">
<g>
	<g>
		<g>
			<path d="M477.338,841.89c2.83,0,5.66-1.415,7.075-2.83c4.245-4.245,4.245-11.32,0-15.564
				c-99.046-99.046-316.947-357.98-355.15-403.258c38.203-45.278,257.519-302.797,356.565-401.843c4.245-4.245,4.245-11.32,0-15.564
				s-11.32-4.245-15.564,0c-108.95,108.95-360.81,407.503-363.64,410.333c-2.83,4.245-2.83,9.905,0,14.149
				c2.83,2.83,253.274,302.797,362.225,411.748C473.093,840.475,475.923,841.89,477.338,841.89z"/>
		</g>
	</g>
</g>
</svg>
