<?xml version="1.0" encoding="utf-8"?>
<!-- Generator: Adobe Illustrator 17.0.0, SVG Export Plug-In . SVG Version: 6.00 Build 0)  -->
<!DOCTYPE svg PUBLIC "-//W3C//DTD SVG 1.1//EN" "http://www.w3.org/Graphics/SVG/1.1/DTD/svg11.dtd">
<svg version="1.1" id="Layer_1" xmlns="http://www.w3.org/2000/svg" xmlns:xlink="http://www.w3.org/1999/xlink" x="0px" y="0px"
	 width="595.28px" height="841.89px" viewBox="0 0 595.28 841.89" enable-background="new 0 0 595.28 841.89" xml:space="preserve">
<g>
	<g>
		<g>
			<path d="M116.528,841.89c-2.83,0-5.66-1.415-7.075-2.83c-4.245-4.245-4.245-11.32,0-15.564
				c99.046-99.046,316.947-357.98,355.15-403.258C426.4,374.959,207.084,117.44,108.038,18.394c-4.245-4.245-4.245-11.32,0-15.564
				c4.245-4.245,11.32-4.245,15.564,0c108.95,108.95,360.81,408.918,363.64,411.748c2.83,4.245,2.83,9.905,0,14.149
				c-2.83,1.415-254.689,301.382-363.64,410.333C122.187,840.475,119.357,841.89,116.528,841.89z"/>
		</g>
	</g>
</g>
</svg>
