<?xml version="1.0" encoding="utf-8"?>
<!-- Generator: Adobe Illustrator 18.0.0, SVG Export Plug-In . SVG Version: 6.00 Build 0)  -->
<!DOCTYPE svg PUBLIC "-//W3C//DTD SVG 1.1//EN" "http://www.w3.org/Graphics/SVG/1.1/DTD/svg11.dtd">
<svg version="1.1" id="Layer_1" xmlns="http://www.w3.org/2000/svg" xmlns:xlink="http://www.w3.org/1999/xlink" x="0px" y="0px"
	 viewBox="0 0 27.2 59.5" enable-background="new 0 0 27.2 59.5" xml:space="preserve">
<g>
	<g>
		<g>
			<path fill="#FFFFFF" d="M0.8,59.5c-0.2,0-0.4-0.1-0.5-0.2C0,59,0,58.5,0.3,58.2c7-7,22.4-25.3,25.1-28.5
				C22.7,26.5,7.2,8.3,0.2,1.3c-0.3-0.3-0.3-0.8,0-1.1c0.3-0.3,0.8-0.3,1.1,0C9,7.9,26.8,29.1,27,29.3c0.2,0.3,0.2,0.7,0,1
				C26.8,30.4,9,51.6,1.3,59.3C1.2,59.4,1,59.5,0.8,59.5z"/>
		</g>
	</g>
</g>
</svg>
